<svg xmlns="http://www.w3.org/2000/svg" xmlns:xlink="http://www.w3.org/1999/xlink" width="50" zoomAndPan="magnify" viewBox="0 0 37.5 37.499999" height="50" preserveAspectRatio="xMidYMid meet" version="1.0"><defs><clipPath id="198e17d997"><path d="M 3.75 0 L 37.007812 0 L 37.007812 37.007812 L 3.75 37.007812 Z M 3.75 0 " clip-rule="nonzero"/></clipPath></defs><path fill="#1d1e21" d="M 7.773438 36.144531 C 7.3125 36.144531 6.882812 36.027344 6.484375 35.796875 C 6.085938 35.570312 5.773438 35.257812 5.542969 34.863281 C 5.3125 34.464844 5.199219 34.039062 5.203125 33.578125 L 5.203125 4.046875 C 5.199219 3.589844 5.3125 3.164062 5.542969 2.765625 C 5.773438 2.371094 6.085938 2.058594 6.484375 1.832031 C 6.882812 1.597656 7.3125 1.484375 7.773438 1.484375 C 8.230469 1.484375 8.660156 1.597656 9.058594 1.832031 L 34.757812 16.597656 C 34.953125 16.710938 35.132812 16.84375 35.292969 17.003906 C 35.449219 17.164062 35.585938 17.339844 35.699219 17.535156 C 35.8125 17.730469 35.898438 17.933594 35.957031 18.152344 C 36.015625 18.367188 36.042969 18.589844 36.042969 18.8125 C 36.042969 19.039062 36.015625 19.257812 35.957031 19.476562 C 35.898438 19.695312 35.8125 19.898438 35.699219 20.09375 C 35.585938 20.289062 35.449219 20.464844 35.292969 20.625 C 35.132812 20.785156 34.953125 20.917969 34.757812 21.03125 L 9.058594 35.796875 C 8.660156 36.027344 8.230469 36.144531 7.773438 36.144531 Z M 7.773438 36.144531 " fill-opacity="1" fill-rule="nonzero"/><g clip-path="url(#198e17d997)"><path fill="#fcd354" d="M 35.402344 15.488281 L 9.703125 0.722656 C 9.554688 0.636719 9.40625 0.5625 9.25 0.5 C 9.09375 0.4375 8.933594 0.382812 8.769531 0.339844 C 8.609375 0.296875 8.445312 0.261719 8.277344 0.242188 C 8.109375 0.21875 7.941406 0.207031 7.773438 0.207031 C 7.605469 0.207031 7.4375 0.21875 7.269531 0.242188 C 7.101562 0.261719 6.9375 0.296875 6.777344 0.339844 C 6.613281 0.382812 6.453125 0.4375 6.296875 0.5 C 6.144531 0.566406 5.992188 0.640625 5.847656 0.722656 C 5.699219 0.808594 5.5625 0.898438 5.425781 1.003906 C 5.292969 1.105469 5.167969 1.214844 5.046875 1.332031 C 4.929688 1.453125 4.816406 1.578125 4.714844 1.710938 C 4.613281 1.84375 4.519531 1.984375 4.433594 2.128906 C 4.351562 2.273438 4.277344 2.425781 4.210938 2.578125 C 4.148438 2.734375 4.09375 2.894531 4.050781 3.054688 C 4.007812 3.214844 3.972656 3.378906 3.953125 3.546875 C 3.929688 3.714844 3.917969 3.878906 3.917969 4.046875 L 3.917969 33.578125 C 3.917969 34.265625 4.085938 34.90625 4.429688 35.503906 C 4.773438 36.097656 5.246094 36.570312 5.84375 36.914062 C 6.4375 37.253906 7.082031 37.425781 7.773438 37.425781 C 8.460938 37.425781 9.105469 37.25 9.703125 36.90625 L 35.402344 22.140625 C 35.550781 22.054688 35.6875 21.964844 35.824219 21.859375 C 35.957031 21.757812 36.082031 21.648438 36.203125 21.53125 C 36.320312 21.410156 36.429688 21.285156 36.535156 21.152344 C 36.636719 21.019531 36.730469 20.878906 36.8125 20.734375 C 36.898438 20.589844 36.972656 20.4375 37.039062 20.285156 C 37.101562 20.128906 37.15625 19.96875 37.199219 19.808594 C 37.242188 19.644531 37.277344 19.480469 37.296875 19.316406 C 37.320312 19.148438 37.332031 18.980469 37.332031 18.8125 C 37.332031 18.644531 37.320312 18.480469 37.296875 18.3125 C 37.277344 18.144531 37.242188 17.980469 37.199219 17.820312 C 37.15625 17.65625 37.101562 17.5 37.039062 17.34375 C 36.972656 17.1875 36.898438 17.039062 36.8125 16.894531 C 36.730469 16.75 36.636719 16.609375 36.535156 16.476562 C 36.429688 16.34375 36.320312 16.21875 36.203125 16.097656 C 36.082031 15.980469 35.957031 15.871094 35.824219 15.765625 C 35.6875 15.664062 35.550781 15.570312 35.402344 15.488281 Z M 34.117188 19.921875 L 8.417969 34.6875 C 8.320312 34.746094 8.214844 34.789062 8.105469 34.816406 C 7.996094 34.84375 7.886719 34.859375 7.773438 34.859375 C 7.660156 34.859375 7.550781 34.84375 7.441406 34.816406 C 7.332031 34.785156 7.230469 34.742188 7.132812 34.6875 C 7.035156 34.632812 6.945312 34.5625 6.867188 34.484375 C 6.785156 34.40625 6.71875 34.316406 6.660156 34.21875 C 6.605469 34.121094 6.5625 34.019531 6.535156 33.910156 C 6.503906 33.800781 6.488281 33.691406 6.488281 33.578125 L 6.488281 4.046875 C 6.484375 3.550781 6.699219 3.183594 7.132812 2.941406 C 7.332031 2.824219 7.550781 2.765625 7.78125 2.765625 C 8.007812 2.765625 8.21875 2.824219 8.417969 2.941406 L 34.117188 17.707031 C 34.546875 17.953125 34.761719 18.320312 34.761719 18.816406 C 34.761719 19.308594 34.546875 19.675781 34.117188 19.921875 Z M 34.117188 19.921875 " fill-opacity="1" fill-rule="nonzero"/></g></svg>