<svg xmlns="http://www.w3.org/2000/svg" xmlns:xlink="http://www.w3.org/1999/xlink" width="25" zoomAndPan="magnify" viewBox="0 0 37.5 37.499999" height="50" preserveAspectRatio="xMidYMid meet" version="1.0">
  <defs>
    <clipPath id="9d995f2c6f">
      <path d="M 1.160156 3.75 L 36.410156 3.75 L 36.410156 34.5 L 1.160156 34.5 Z M 1.160156 3.75 " clip-rule="nonzero"/>
    </clipPath>
  <linearGradient id="grad" x1="0%" y1="0%" x2="100%" y2="0%">
      <stop offset="0%" stop-color="#dc2430 "/>
     
      <stop offset="75" stop-color="#7b4397"/>
    </linearGradient>
  </defs>
  <g clip-path="url(#9d995f2c6f)">
    <path fill="url(#grad)" d="M 34.199219 16.929688 L 3.367188 16.929688 C 3.074219 16.929688 2.792969 16.984375 2.523438 17.097656 C 2.253906 17.207031 2.015625 17.367188 1.808594 17.570312 C 1.601562 17.777344 1.441406 18.015625 1.332031 18.285156 C 1.21875 18.554688 1.164062 18.832031 1.164062 19.125 C 1.164062 19.417969 1.21875 19.695312 1.332031 19.964844 C 1.441406 20.234375 1.601562 20.472656 1.808594 20.679688 C 2.015625 20.882812 2.253906 21.042969 2.523438 21.152344 C 2.792969 21.265625 3.074219 21.320312 3.367188 21.320312 L 34.199219 21.320312 C 34.492188 21.320312 34.773438 21.265625 35.042969 21.152344 C 35.3125 21.042969 35.550781 20.882812 35.757812 20.679688 C 35.964844 20.472656 36.125 20.234375 36.234375 19.964844 C 36.347656 19.695312 36.402344 19.417969 36.402344 19.125 C 36.402344 18.832031 36.347656 18.554688 36.234375 18.285156 C 36.125 18.015625 35.964844 17.777344 35.757812 17.570312 C 35.550781 17.367188 35.3125 17.207031 35.042969 17.097656 C 34.773438 16.984375 34.492188 16.929688 34.199219 16.929688 Z M 34.199219 30.105469 L 3.367188 30.105469 C 3.074219 30.105469 2.792969 30.164062 2.523438 30.273438 C 2.253906 30.386719 2.015625 30.542969 1.808594 30.75 C 1.601562 30.957031 1.441406 31.195312 1.332031 31.464844 C 1.21875 31.730469 1.164062 32.011719 1.164062 32.304688 C 1.164062 32.59375 1.21875 32.875 1.332031 33.144531 C 1.441406 33.414062 1.601562 33.652344 1.808594 33.855469 C 2.015625 34.0625 2.253906 34.222656 2.523438 34.332031 C 2.792969 34.445312 3.074219 34.5 3.367188 34.5 L 34.199219 34.5 C 34.492188 34.5 34.773438 34.445312 35.042969 34.332031 C 35.3125 34.222656 35.550781 34.0625 35.757812 33.855469 C 35.964844 33.652344 36.125 33.414062 36.234375 33.144531 C 36.347656 32.875 36.402344 32.59375 36.402344 32.304688 C 36.402344 32.011719 36.347656 31.730469 36.234375 31.464844 C 36.125 31.195312 35.964844 30.957031 35.757812 30.75 C 35.550781 30.542969 35.3125 30.386719 35.042969 30.273438 C 34.773438 30.164062 34.492188 30.105469 34.199219 30.105469 Z M 3.367188 8.144531 L 34.199219 8.144531 C 34.492188 8.144531 34.773438 8.085938 35.042969 7.976562 C 35.3125 7.863281 35.550781 7.707031 35.757812 7.5 C 35.964844 7.292969 36.125 7.054688 36.234375 6.785156 C 36.347656 6.519531 36.402344 6.238281 36.402344 5.945312 C 36.402344 5.65625 36.347656 5.375 36.234375 5.105469 C 36.125 4.835938 35.964844 4.597656 35.757812 4.394531 C 35.550781 4.1875 35.3125 4.027344 35.042969 3.917969 C 34.773438 3.804688 34.492188 3.75 34.199219 3.75 L 3.367188 3.75 C 3.074219 3.75 2.792969 3.804688 2.523438 3.917969 C 2.253906 4.027344 2.015625 4.1875 1.808594 4.394531 C 1.601562 4.597656 1.441406 4.835938 1.332031 5.105469 C 1.21875 5.375 1.164062 5.65625 1.164062 5.945312 C 1.164062 6.238281 1.21875 6.519531 1.332031 6.785156 C 1.441406 7.054688 1.601562 7.292969 1.808594 7.5 C 2.015625 7.707031 2.253906 7.863281 2.523438 7.976562 C 2.792969 8.085938 3.074219 8.144531 3.367188 8.144531 Z M 3.367188 8.144531"  fill-opacity="1" fill-rule="nonzero"/></g></svg>
