<svg xmlns="http://www.w3.org/2000/svg" xmlns:xlink="http://www.w3.org/1999/xlink" width="50" zoomAndPan="magnify" viewBox="0 0 375 374.999991" height="50" preserveAspectRatio="xMidYMid meet" version="1.0">

 <linearGradient id="gradient" x1="0%" y1="0%" x2="100%" y2="0%">
      <stop offset="0%" stop-color="#dc2430 "/>
     
      <stop offset="75" stop-color="#7b4397"/>
    </linearGradient>
<path fill="url(#gradient)" d="M 343.503906 157.054688 C 339.304688 136.058594 330.90625 116.320312 319.570312 99.105469 L 342.246094 76.429688 L 298.992188 33.59375 L 276.316406 56.269531 C 259.097656 44.511719 239.363281 36.535156 218.363281 32.335938 L 218.363281 0 L 157.054688 0 L 157.054688 31.914062 C 136.058594 36.113281 116.320312 44.511719 99.105469 55.851562 L 76.429688 33.175781 L 33.59375 76.429688 L 56.269531 99.105469 C 44.511719 116.320312 36.535156 136.058594 32.335938 157.054688 L 0 157.054688 L 0 217.945312 L 31.914062 217.945312 C 36.113281 238.941406 44.511719 258.679688 55.851562 275.894531 L 33.175781 298.570312 L 76.429688 341.824219 L 99.105469 319.148438 C 116.320312 330.90625 136.058594 339.304688 157.054688 343.085938 L 157.054688 375 L 217.945312 375 L 217.945312 343.085938 C 238.941406 338.886719 258.679688 330.488281 275.894531 319.148438 L 298.570312 341.824219 L 341.824219 298.570312 L 319.148438 275.894531 C 330.90625 258.679688 339.304688 238.941406 343.085938 217.945312 L 375 217.945312 L 375 157.054688 Z M 187.710938 293.113281 C 129.339844 293.113281 82.308594 246.082031 82.308594 187.710938 C 82.308594 129.339844 129.339844 82.308594 187.710938 82.308594 C 246.082031 82.308594 293.113281 129.339844 293.113281 187.710938 C 293.113281 246.082031 246.082031 293.113281 187.710938 293.113281 Z M 187.710938 293.113281 " fill-opacity="1" fill-rule="nonzero"/><path fill="url(#gradient)" d="M 254.480469 187.710938 C 254.480469 188.800781 254.453125 189.894531 254.398438 190.984375 C 254.34375 192.078125 254.265625 193.167969 254.15625 194.253906 C 254.050781 195.34375 253.917969 196.425781 253.757812 197.507812 C 253.597656 198.589844 253.410156 199.664062 253.195312 200.734375 C 252.984375 201.808594 252.742188 202.875 252.476562 203.933594 C 252.210938 204.992188 251.921875 206.046875 251.605469 207.09375 C 251.285156 208.136719 250.945312 209.175781 250.574219 210.203125 C 250.207031 211.234375 249.816406 212.25 249.398438 213.261719 C 248.980469 214.269531 248.535156 215.269531 248.070312 216.257812 C 247.601562 217.246094 247.109375 218.222656 246.59375 219.183594 C 246.078125 220.148438 245.542969 221.097656 244.980469 222.035156 C 244.417969 222.972656 243.832031 223.894531 243.226562 224.804688 C 242.621094 225.714844 241.992188 226.605469 241.339844 227.484375 C 240.6875 228.363281 240.015625 229.222656 239.324219 230.066406 C 238.628906 230.914062 237.917969 231.738281 237.183594 232.550781 C 236.449219 233.359375 235.695312 234.148438 234.921875 234.921875 C 234.148438 235.695312 233.359375 236.449219 232.550781 237.183594 C 231.738281 237.917969 230.914062 238.628906 230.066406 239.324219 C 229.222656 240.015625 228.363281 240.6875 227.484375 241.339844 C 226.605469 241.992188 225.714844 242.621094 224.804688 243.226562 C 223.894531 243.832031 222.972656 244.417969 222.035156 244.980469 C 221.097656 245.542969 220.148438 246.078125 219.183594 246.59375 C 218.222656 247.109375 217.246094 247.601562 216.257812 248.070312 C 215.269531 248.535156 214.269531 248.980469 213.261719 249.398438 C 212.25 249.816406 211.234375 250.207031 210.203125 250.574219 C 209.175781 250.945312 208.136719 251.285156 207.09375 251.605469 C 206.046875 251.921875 204.992188 252.210938 203.933594 252.476562 C 202.875 252.742188 201.808594 252.984375 200.734375 253.195312 C 199.664062 253.410156 198.589844 253.597656 197.507812 253.757812 C 196.425781 253.917969 195.34375 254.050781 194.253906 254.15625 C 193.167969 254.265625 192.078125 254.34375 190.984375 254.398438 C 189.894531 254.453125 188.800781 254.480469 187.710938 254.480469 C 186.617188 254.480469 185.523438 254.453125 184.433594 254.398438 C 183.34375 254.34375 182.253906 254.265625 181.164062 254.15625 C 180.078125 254.050781 178.992188 253.917969 177.914062 253.757812 C 176.832031 253.597656 175.753906 253.410156 174.683594 253.195312 C 173.613281 252.984375 172.546875 252.742188 171.484375 252.476562 C 170.425781 252.210938 169.375 251.921875 168.328125 251.605469 C 167.28125 251.285156 166.246094 250.945312 165.214844 250.574219 C 164.1875 250.207031 163.167969 249.816406 162.160156 249.398438 C 161.148438 248.980469 160.148438 248.535156 159.164062 248.070312 C 158.175781 247.601562 157.199219 247.109375 156.234375 246.59375 C 155.269531 246.078125 154.320312 245.542969 153.382812 244.980469 C 152.445312 244.417969 151.523438 243.832031 150.613281 243.226562 C 149.707031 242.621094 148.8125 241.992188 147.933594 241.339844 C 147.058594 240.6875 146.195312 240.015625 145.351562 239.324219 C 144.507812 238.628906 143.679688 237.917969 142.871094 237.183594 C 142.0625 236.449219 141.269531 235.695312 140.496094 234.921875 C 139.722656 234.148438 138.972656 233.359375 138.238281 232.550781 C 137.503906 231.738281 136.789062 230.914062 136.097656 230.066406 C 135.402344 229.222656 134.730469 228.363281 134.082031 227.484375 C 133.429688 226.605469 132.800781 225.714844 132.191406 224.804688 C 131.585938 223.894531 131 222.972656 130.441406 222.035156 C 129.878906 221.097656 129.339844 220.148438 128.824219 219.183594 C 128.308594 218.222656 127.820312 217.246094 127.351562 216.257812 C 126.882812 215.269531 126.441406 214.269531 126.023438 213.261719 C 125.605469 212.25 125.210938 211.234375 124.84375 210.203125 C 124.476562 209.175781 124.132812 208.136719 123.816406 207.09375 C 123.5 206.046875 123.207031 204.992188 122.941406 203.933594 C 122.675781 202.875 122.4375 201.808594 122.222656 200.734375 C 122.011719 199.664062 121.824219 198.589844 121.664062 197.507812 C 121.503906 196.425781 121.371094 195.34375 121.261719 194.253906 C 121.15625 193.167969 121.074219 192.078125 121.019531 190.984375 C 120.96875 189.894531 120.941406 188.800781 120.941406 187.710938 C 120.941406 186.617188 120.96875 185.523438 121.019531 184.433594 C 121.074219 183.34375 121.15625 182.253906 121.261719 181.164062 C 121.371094 180.078125 121.503906 178.992188 121.664062 177.914062 C 121.824219 176.832031 122.011719 175.753906 122.222656 174.683594 C 122.4375 173.613281 122.675781 172.546875 122.941406 171.484375 C 123.207031 170.425781 123.5 169.375 123.816406 168.328125 C 124.132812 167.28125 124.476562 166.246094 124.84375 165.214844 C 125.210938 164.1875 125.605469 163.167969 126.023438 162.160156 C 126.441406 161.148438 126.882812 160.148438 127.351562 159.164062 C 127.820312 158.175781 128.308594 157.199219 128.824219 156.234375 C 129.339844 155.269531 129.878906 154.320312 130.441406 153.382812 C 131 152.445312 131.585938 151.523438 132.191406 150.613281 C 132.800781 149.707031 133.429688 148.8125 134.082031 147.933594 C 134.730469 147.058594 135.402344 146.195312 136.097656 145.351562 C 136.789062 144.507812 137.503906 143.679688 138.238281 142.871094 C 138.972656 142.0625 139.722656 141.269531 140.496094 140.496094 C 141.269531 139.722656 142.0625 138.972656 142.871094 138.238281 C 143.679688 137.503906 144.507812 136.789062 145.351562 136.097656 C 146.195312 135.402344 147.058594 134.730469 147.933594 134.082031 C 148.8125 133.429688 149.707031 132.800781 150.613281 132.191406 C 151.523438 131.585938 152.445312 131 153.382812 130.441406 C 154.320312 129.878906 155.269531 129.339844 156.234375 128.824219 C 157.199219 128.308594 158.175781 127.820312 159.164062 127.351562 C 160.148438 126.882812 161.148438 126.441406 162.160156 126.023438 C 163.167969 125.605469 164.1875 125.210938 165.214844 124.84375 C 166.246094 124.476562 167.28125 124.132812 168.328125 123.816406 C 169.375 123.5 170.425781 123.207031 171.484375 122.941406 C 172.546875 122.675781 173.613281 122.4375 174.683594 122.222656 C 175.753906 122.011719 176.832031 121.824219 177.914062 121.664062 C 178.992188 121.503906 180.078125 121.371094 181.164062 121.261719 C 182.253906 121.15625 183.34375 121.074219 184.433594 121.019531 C 185.523438 120.96875 186.617188 120.941406 187.710938 120.941406 C 188.800781 120.941406 189.894531 120.96875 190.984375 121.019531 C 192.078125 121.074219 193.167969 121.15625 194.253906 121.261719 C 195.34375 121.371094 196.425781 121.503906 197.507812 121.664062 C 198.589844 121.824219 199.664062 122.011719 200.734375 122.222656 C 201.808594 122.4375 202.875 122.675781 203.933594 122.941406 C 204.992188 123.207031 206.046875 123.5 207.09375 123.816406 C 208.136719 124.132812 209.175781 124.476562 210.203125 124.84375 C 211.234375 125.210938 212.25 125.605469 213.261719 126.023438 C 214.269531 126.441406 215.269531 126.882812 216.257812 127.351562 C 217.246094 127.820312 218.222656 128.308594 219.183594 128.824219 C 220.148438 129.339844 221.097656 129.878906 222.035156 130.441406 C 222.972656 131 223.894531 131.585938 224.804688 132.191406 C 225.714844 132.800781 226.605469 133.429688 227.484375 134.082031 C 228.363281 134.730469 229.222656 135.402344 230.066406 136.097656 C 230.914062 136.789062 231.738281 137.503906 232.550781 138.238281 C 233.359375 138.972656 234.148438 139.722656 234.921875 140.496094 C 235.695312 141.269531 236.449219 142.0625 237.183594 142.871094 C 237.917969 143.679688 238.628906 144.507812 239.324219 145.351562 C 240.015625 146.195312 240.6875 147.058594 241.339844 147.933594 C 241.992188 148.8125 242.621094 149.707031 243.226562 150.613281 C 243.832031 151.523438 244.417969 152.445312 244.980469 153.382812 C 245.542969 154.320312 246.078125 155.269531 246.59375 156.234375 C 247.109375 157.199219 247.601562 158.175781 248.070312 159.164062 C 248.535156 160.148438 248.980469 161.148438 249.398438 162.160156 C 249.816406 163.167969 250.207031 164.1875 250.574219 165.214844 C 250.945312 166.246094 251.285156 167.28125 251.605469 168.328125 C 251.921875 169.375 252.210938 170.425781 252.476562 171.484375 C 252.742188 172.546875 252.984375 173.613281 253.195312 174.683594 C 253.410156 175.753906 253.597656 176.832031 253.757812 177.914062 C 253.917969 178.992188 254.050781 180.078125 254.15625 181.164062 C 254.265625 182.253906 254.34375 183.34375 254.398438 184.433594 C 254.453125 185.523438 254.480469 186.617188 254.480469 187.710938 Z M 254.480469 187.710938 " fill-opacity="1" fill-rule="nonzero"/></svg>