<svg xmlns="http://www.w3.org/2000/svg" xmlns:xlink="http://www.w3.org/1999/xlink" width="40" zoomAndPan="magnify" viewBox="0 0 37.5 37.499999" height="50" preserveAspectRatio="xMidYMid meet" version="1.0"><defs><clipPath id="0ffc4c8b4d"><path d="M 1.277344 0 L 32 0 L 32 37.007812 L 1.277344 37.007812 Z M 1.277344 0 " clip-rule="nonzero"/></clipPath><clipPath id="274a55d081"><path d="M 6.382812 7.132812 L 25.132812 7.132812 L 25.132812 30.382812 L 6.382812 30.382812 Z M 6.382812 7.132812 " clip-rule="nonzero"/></clipPath></defs><g clip-path="url(#0ffc4c8b4d)"><path fill="#fcd354" d="M 30.546875 21.042969 L 5.765625 36.671875 C 5.3125 36.960938 4.816406 37.113281 4.277344 37.132812 C 3.738281 37.148438 3.230469 37.03125 2.757812 36.773438 C 2.285156 36.519531 1.914062 36.164062 1.636719 35.703125 C 1.363281 35.246094 1.226562 34.75 1.226562 34.21875 L 1.226562 2.957031 C 1.226562 2.421875 1.363281 1.925781 1.636719 1.46875 C 1.914062 1.011719 2.285156 0.652344 2.757812 0.398438 C 3.230469 0.140625 3.738281 0.0234375 4.277344 0.0429688 C 4.816406 0.0585938 5.3125 0.214844 5.765625 0.5 L 30.546875 16.132812 C 30.753906 16.261719 30.941406 16.417969 31.113281 16.597656 C 31.28125 16.777344 31.425781 16.972656 31.542969 17.1875 C 31.664062 17.402344 31.753906 17.628906 31.8125 17.863281 C 31.875 18.101562 31.90625 18.34375 31.90625 18.585938 C 31.90625 18.832031 31.875 19.070312 31.8125 19.308594 C 31.753906 19.546875 31.664062 19.769531 31.542969 19.984375 C 31.425781 20.199219 31.28125 20.398438 31.113281 20.574219 C 30.941406 20.753906 30.753906 20.910156 30.546875 21.042969 Z M 30.546875 21.042969 " fill-opacity="1" fill-rule="nonzero"/></g><g clip-path="url(#274a55d081)"><path fill="#1d1e21" d="M 24.226562 20.234375 L 9.117188 29.925781 C 8.839844 30.105469 8.539062 30.199219 8.210938 30.210938 C 7.878906 30.222656 7.574219 30.148438 7.285156 29.988281 C 6.996094 29.832031 6.765625 29.609375 6.601562 29.324219 C 6.433594 29.039062 6.347656 28.734375 6.347656 28.402344 L 6.347656 9.023438 C 6.347656 8.691406 6.433594 8.386719 6.601562 8.101562 C 6.765625 7.816406 6.996094 7.597656 7.285156 7.4375 C 7.574219 7.277344 7.878906 7.207031 8.210938 7.214844 C 8.539062 7.226562 8.839844 7.324219 9.117188 7.5 L 24.226562 17.191406 C 24.355469 17.273438 24.46875 17.371094 24.570312 17.480469 C 24.675781 17.589844 24.761719 17.710938 24.835938 17.84375 C 24.90625 17.980469 24.960938 18.117188 25 18.265625 C 25.039062 18.414062 25.054688 18.5625 25.054688 18.714844 C 25.054688 18.863281 25.039062 19.015625 25 19.160156 C 24.960938 19.308594 24.90625 19.449219 24.835938 19.582031 C 24.761719 19.714844 24.675781 19.835938 24.570312 19.945312 C 24.46875 20.058594 24.355469 20.152344 24.226562 20.234375 Z M 24.226562 20.234375 " fill-opacity="1" fill-rule="nonzero"/></g></svg>