<svg xmlns="http://www.w3.org/2000/svg" xmlns:xlink="http://www.w3.org/1999/xlink" width="50" zoomAndPan="magnify" viewBox="0 0 37.5 37.499999" height="50" preserveAspectRatio="xMidYMid meet" version="1.0"><defs><clipPath id="7eab5c5665"><path d="M 0 6.585938 L 37.007812 6.585938 L 37.007812 30.585938 L 0 30.585938 Z M 0 6.585938 " clip-rule="nonzero"/></clipPath></defs><g clip-path="url(#7eab5c5665)"><path fill="#dc2430" d="M 6.886719 16.828125 L 6.886719 16.808594 C 6.886719 16.324219 6.484375 15.925781 5.988281 15.925781 L 5.632812 15.925781 C 5.191406 15.925781 4.816406 16.242188 4.746094 16.671875 C 4.746094 16.679688 4.746094 16.683594 4.742188 16.691406 C 4.65625 17.226562 5.078125 17.710938 5.628906 17.710938 L 5.988281 17.710938 C 6.484375 17.710938 6.886719 17.316406 6.886719 16.828125 Z M 11.859375 23.066406 L 6.9375 23.066406 C 6.257812 23.066406 5.824219 23.789062 6.152344 24.375 C 6.15625 24.382812 6.15625 24.386719 6.160156 24.394531 C 6.320312 24.675781 6.621094 24.851562 6.949219 24.851562 L 11.859375 24.851562 C 12.359375 24.851562 12.765625 24.453125 12.765625 23.960938 C 12.765625 23.46875 12.359375 23.066406 11.859375 23.066406 Z M 2.765625 12.355469 L 1.125 12.355469 C 0.796875 12.355469 0.496094 12.53125 0.335938 12.816406 C 0.332031 12.820312 0.332031 12.828125 0.328125 12.832031 C 0 13.421875 0.433594 14.140625 1.113281 14.140625 L 2.765625 14.140625 C 3.261719 14.140625 3.660156 13.746094 3.660156 13.257812 L 3.660156 13.238281 C 3.660156 12.753906 3.261719 12.355469 2.765625 12.355469 Z M 31.851562 19.4375 L 21.527344 25.316406 C 20.878906 25.6875 20.066406 25.222656 20.066406 24.484375 L 20.066406 12.722656 C 20.066406 11.984375 20.878906 11.523438 21.527344 11.890625 L 31.851562 17.773438 C 32.5 18.144531 32.5 19.066406 31.851562 19.4375 Z M 25.234375 6.625 C 21.6875 6.644531 18.5 8.164062 16.289062 10.570312 L 17.574219 10.570312 C 18.082031 10.570312 18.511719 10.980469 18.5 11.480469 C 18.492188 11.964844 18.089844 12.355469 17.597656 12.355469 L 11.636719 12.355469 C 11.136719 12.355469 10.730469 12.757812 10.730469 13.25 C 10.730469 13.742188 11.136719 14.140625 11.636719 14.140625 L 17.574219 14.140625 C 18.082031 14.140625 18.511719 14.550781 18.5 15.050781 C 18.492188 15.535156 18.089844 15.925781 17.597656 15.925781 L 14.226562 15.925781 C 13.730469 15.925781 13.332031 16.324219 13.332031 16.808594 L 13.332031 16.828125 C 13.332031 17.316406 13.730469 17.710938 14.226562 17.710938 L 15.804688 17.710938 C 16.3125 17.710938 16.738281 18.121094 16.730469 18.621094 C 16.71875 19.105469 16.320312 19.496094 15.824219 19.496094 L 12.484375 19.496094 C 11.984375 19.496094 11.578125 19.898438 11.578125 20.390625 C 11.578125 20.882812 11.984375 21.28125 12.484375 21.28125 L 15.804688 21.28125 C 16.3125 21.28125 16.738281 21.691406 16.730469 22.191406 C 16.71875 22.675781 16.320312 23.066406 15.824219 23.066406 L 14.800781 23.066406 C 14.300781 23.066406 13.898438 23.46875 13.898438 23.960938 C 13.898438 24.453125 14.300781 24.851562 14.800781 24.851562 L 17.574219 24.851562 C 18.082031 24.851562 18.511719 25.261719 18.5 25.761719 C 18.492188 26.246094 18.089844 26.636719 17.597656 26.636719 L 16.289062 26.636719 C 18.511719 29.0625 21.726562 30.582031 25.296875 30.582031 C 32.039062 30.582031 37.5 25.164062 37.441406 18.5 C 37.382812 11.882812 31.941406 6.589844 25.234375 6.625 Z M 5.699219 14.140625 L 8.695312 14.140625 C 9.195312 14.140625 9.597656 13.742188 9.597656 13.25 C 9.597656 12.757812 9.195312 12.355469 8.695312 12.355469 L 5.699219 12.355469 C 5.199219 12.355469 4.792969 12.757812 4.792969 13.25 C 4.792969 13.742188 5.199219 14.140625 5.699219 14.140625 Z M 8.886719 19.496094 C 8.335938 19.496094 7.914062 19.984375 8 20.519531 C 8.003906 20.523438 8.003906 20.53125 8.003906 20.535156 C 8.074219 20.964844 8.449219 21.28125 8.890625 21.28125 L 9.542969 21.28125 C 10.042969 21.28125 10.445312 20.882812 10.445312 20.390625 C 10.445312 19.898438 10.042969 19.496094 9.542969 19.496094 Z M 12.199219 16.828125 L 12.199219 16.808594 C 12.199219 16.324219 11.800781 15.925781 11.304688 15.925781 L 8.910156 15.925781 C 8.417969 15.925781 8.015625 16.324219 8.015625 16.808594 L 8.015625 16.828125 C 8.015625 17.316406 8.417969 17.710938 8.910156 17.710938 L 11.304688 17.710938 C 11.800781 17.710938 12.199219 17.316406 12.199219 16.828125 " fill-opacity="1" fill-rule="nonzero"/></g></svg>